<?xml version="1.0" encoding="UTF-8" standalone="no"?><!DOCTYPE svg PUBLIC "-//W3C//DTD SVG 1.1//EN" "http://www.w3.org/Graphics/SVG/1.1/DTD/svg11.dtd"><svg width="100%" height="100%" viewBox="0 0 600 600" version="1.1" xmlns="http://www.w3.org/2000/svg" xmlns:xlink="http://www.w3.org/1999/xlink" xml:space="preserve" xmlns:serif="http://www.serif.com/" style="fill-rule:evenodd;clip-rule:evenodd;stroke-linejoin:round;stroke-miterlimit:2;"><circle cx="304.064" cy="307.025" r="216.651" style="fill:#f1851c;"/><g><g transform="matrix(0.967838,-0.251574,0.222178,0.85475,-104.45,161.269)"><text x="341.102px" y="519.495px" style="font-family:'AcademyEngravedLetPlain', 'Academy Engraved LET';font-size:44.426px;">I</text></g></g><g transform="matrix(0.754589,0.287286,-0.355804,0.934561,233.341,-29.3653)"><text x="217.439px" y="505.838px" style="font-family:'AcademyEngravedLetPlain', 'Academy Engraved LET';font-size:44.198px;">A</text></g><g transform="matrix(0.7273,0.368843,-0.4523,0.891866,273.401,-16.5592)"><text x="188.745px" y="490.669px" style="font-family:'AcademyEngravedLetPlain', 'Academy Engraved LET';font-size:41.326px;">M</text></g><g transform="matrix(0.967531,0.252752,-0.238986,0.914836,131.059,-18.1644)"><text x="245.413px" y="515.055px" style="font-family:'AcademyEngravedLetPlain', 'Academy Engraved LET';font-size:45.581px;">Z</text></g><g><g transform="matrix(1,0,0,0.997395,2.84217e-14,0.606965)"><text x="226.801px" y="233.027px" style="font-family:'STYuanti-SC-Bold', 'Yuanti SC';font-size:150.636px;">期</text></g><g transform="matrix(1,0,0,0.997395,2.84217e-14,0.998301)"><text x="226.801px" y="383.27px" style="font-family:'STYuanti-SC-Bold', 'Yuanti SC';font-size:150.636px;">刊</text></g></g><g><g transform="matrix(0.82302,0.101266,-0.122121,0.992515,112.509,-24.1276)"><text x="276.715px" y="520.273px" style="font-family:'AcademyEngravedLetPlain', 'Academy Engraved LET';font-size:43.267px;">A</text></g></g><g><g transform="matrix(0.783889,-0.111553,0.140888,0.990026,-6.49359,39.8876)"><text x="310.816px" y="522.858px" style="font-family:'AcademyEngravedLetPlain', 'Academy Engraved LET';font-size:39.488px;">G</text></g></g><g><g transform="matrix(0.748489,-0.317097,0.390089,0.920777,-110.522,155.05)"><text x="360.164px" y="515.542px" style="font-family:'AcademyEngravedLetPlain', 'Academy Engraved LET';font-size:38.218px;">N</text></g></g><g><g transform="matrix(0.741607,-0.404792,0.479106,0.877757,-141.743,218.937)"><text x="388.281px" y="505.258px" style="font-family:'AcademyEngravedLetPlain', 'Academy Engraved LET';font-size:38.384px;">E</text></g></g></svg>